<?xml version="1.0" standalone="no"?>
<!DOCTYPE svg PUBLIC "-//W3C//DTD SVG 20010904//EN"
 "http://www.w3.org/TR/2001/REC-SVG-20010904/DTD/svg10.dtd">
<svg version="1.0" xmlns="http://www.w3.org/2000/svg"
 width="4209.000000pt" height="3132.000000pt" viewBox="0 0 4209.000000 3132.000000"
 preserveAspectRatio="xMidYMid meet">

<g transform="translate(0.000000,3132.000000) scale(0.100000,-0.100000)"
fill="#000000" stroke="none">
<path d="M0 15660 l0 -15660 21045 0 21045 0 0 15660 0 15660 -21045 0 -21045
0 0 -15660z m30465 740 c4 -6 57 -10 126 -10 73 0 119 -4 119 -10 0 -5 14 -10
30 -10 17 0 30 -4 30 -10 0 -7 153 -10 439 -10 283 0 442 -4 446 -10 3 -5 21
-10 40 -10 19 0 37 -4 40 -10 3 -5 15 -10 26 -10 10 0 19 -4 19 -10 0 -6 123
-10 350 -10 331 0 351 -1 385 -20 20 -11 51 -20 70 -20 19 0 35 -4 35 -10 0
-6 53 -10 138 -10 135 0 139 -1 162 -25 16 -17 34 -25 56 -25 18 0 36 -4 39
-10 4 -6 56 -10 124 -10 105 0 120 -2 136 -20 10 -11 26 -20 37 -20 10 0 28
-6 39 -12 17 -10 23 -10 26 0 6 14 39 16 48 2 3 -5 36 -10 73 -10 56 0 70 -3
82 -20 12 -16 26 -20 72 -20 31 0 60 -4 63 -10 3 -5 39 -10 79 -10 58 0 76 -4
94 -20 13 -12 35 -20 57 -20 19 0 35 -4 35 -10 0 -5 23 -10 50 -10 28 0 50 -4
50 -10 0 -5 7 -10 15 -10 8 0 30 -9 50 -20 20 -11 51 -20 69 -20 36 0 87 -22
106 -45 9 -10 32 -15 76 -15 34 0 65 -4 69 -9 9 -16 66 -41 92 -41 12 0 23 -4
23 -10 0 -6 26 -10 58 -10 52 0 62 -3 87 -30 25 -26 36 -30 82 -30 39 0 53 -4
53 -14 0 -16 53 -46 79 -46 9 0 30 -14 48 -30 22 -21 42 -30 65 -30 22 0 39
-7 48 -20 8 -11 22 -20 32 -20 10 0 18 -4 18 -10 0 -5 14 -10 30 -10 23 0 30
-4 30 -20 0 -11 7 -20 15 -20 34 0 95 -46 95 -72 0 -13 8 -18 30 -18 23 0 30
-4 30 -20 0 -11 5 -20 10 -20 6 0 10 -9 10 -20 0 -12 7 -20 16 -20 20 0 44
-24 44 -44 0 -9 5 -16 10 -16 6 0 10 -9 10 -20 0 -16 7 -20 30 -20 23 0 30 -4
30 -20 0 -11 5 -20 10 -20 6 0 10 -13 10 -30 0 -20 5 -30 15 -30 22 0 55 -32
55 -52 0 -10 5 -18 10 -18 6 0 10 -17 10 -39 0 -31 6 -43 30 -62 23 -19 30
-32 30 -61 0 -20 5 -40 10 -43 6 -3 10 -44 10 -90 0 -46 -4 -87 -10 -90 -6 -3
-10 -50 -10 -106 0 -59 -4 -99 -10 -99 -6 0 -10 -88 -10 -243 0 -231 -1 -245
-20 -262 -19 -18 -20 -31 -20 -506 0 -343 -3 -488 -11 -491 -7 -2 -10 -57 -10
-167 2 -140 -1 -166 -15 -182 -13 -14 -15 -31 -12 -70 4 -37 2 -52 -8 -56 -8
-3 -14 -18 -14 -34 0 -16 -4 -29 -10 -29 -6 0 -10 -117 -10 -330 0 -213 -4
-330 -10 -330 -6 0 -10 -33 -10 -79 0 -44 -4 -83 -10 -86 -5 -3 -10 -15 -10
-25 0 -11 -9 -35 -20 -55 -18 -33 -20 -54 -20 -275 0 -153 -4 -240 -10 -240
-6 0 -10 -46 -10 -119 0 -69 -4 -122 -10 -126 -5 -3 -10 -21 -10 -40 0 -19 -4
-37 -10 -40 -19 -12 -12 -79 10 -95 12 -8 20 -26 20 -42 0 -15 5 -28 10 -28 6
0 10 -9 10 -20 0 -16 7 -20 30 -20 17 0 30 -4 30 -10 0 -5 20 -10 45 -10 26 0
59 -8 80 -20 20 -11 44 -20 55 -20 10 0 22 -4 25 -10 4 -6 53 -10 115 -10 104
0 109 -1 128 -25 15 -18 29 -25 55 -25 20 0 39 -4 42 -10 3 -5 37 -10 75 -10
51 0 79 -5 105 -20 21 -12 54 -20 80 -20 25 0 45 -4 45 -10 0 -5 18 -10 40
-10 22 0 40 -4 40 -10 0 -5 9 -10 20 -10 11 0 20 -4 20 -10 0 -5 22 -10 49
-10 28 0 53 -4 56 -10 3 -5 21 -10 39 -10 20 0 40 -8 51 -20 13 -15 31 -20 67
-20 26 0 48 -4 48 -10 0 -5 14 -10 30 -10 17 0 30 -4 30 -10 0 -5 9 -10 20
-10 11 0 20 -4 20 -10 0 -5 23 -10 50 -10 28 0 50 -4 50 -10 0 -5 17 -10 38
-10 26 0 45 -7 57 -20 14 -15 31 -20 71 -20 29 0 56 -4 59 -10 3 -5 21 -10 39
-10 22 0 40 -8 56 -25 20 -21 33 -25 82 -25 32 0 58 -4 58 -10 0 -5 13 -10 28
-10 16 0 34 -8 42 -20 12 -16 26 -20 72 -20 31 0 60 -4 63 -10 3 -5 16 -10 29
-10 13 0 31 -9 41 -20 13 -14 31 -20 61 -20 24 0 46 -4 49 -10 3 -5 19 -10 36
-10 22 0 29 -5 29 -20 0 -17 7 -20 50 -20 28 0 50 -4 50 -10 0 -5 8 -10 18
-10 10 0 24 -9 32 -20 8 -11 22 -20 32 -20 9 0 20 -4 23 -10 3 -5 16 -10 29
-10 13 0 31 -9 41 -20 10 -11 30 -20 45 -20 30 0 82 -23 100 -45 14 -17 67
-45 86 -45 7 0 29 -9 49 -20 20 -11 51 -20 70 -20 19 0 35 -4 35 -10 0 -13 87
-13 95 0 3 6 22 10 42 10 26 0 42 8 64 31 22 24 32 29 42 20 11 -8 21 -3 44
24 25 28 39 35 67 35 20 0 36 5 36 10 0 6 8 10 18 10 10 0 24 9 32 20 8 12 26
20 42 20 15 0 30 5 33 10 3 6 24 10 45 10 22 0 55 9 75 20 20 11 51 20 70 20
19 0 35 5 35 10 0 6 8 10 18 10 10 0 24 9 32 20 8 12 26 20 42 20 15 0 28 5
28 10 0 6 8 10 18 10 10 0 24 9 32 20 8 11 22 20 32 20 10 0 18 5 18 10 0 6 8
10 18 10 11 0 27 9 37 20 10 11 28 20 41 20 13 0 26 5 29 10 3 6 21 10 39 10
22 0 40 8 56 25 13 14 34 25 46 25 13 0 26 5 29 10 8 13 292 13 300 0 3 -5 16
-10 29 -10 13 0 31 -9 42 -21 10 -11 38 -29 62 -40 25 -12 47 -30 52 -44 5
-14 15 -25 22 -25 23 -1 68 -48 68 -73 0 -28 17 -47 42 -47 13 0 18 -8 18 -29
0 -17 5 -33 10 -36 6 -3 10 -19 10 -34 0 -36 27 -91 46 -91 11 0 14 -23 14
-123 0 -128 -10 -172 -42 -181 -11 -2 -18 -14 -18 -28 0 -23 -46 -78 -66 -78
-5 0 -18 -19 -29 -42 -11 -23 -33 -49 -50 -58 -16 -9 -34 -26 -40 -38 -5 -12
-14 -22 -20 -22 -20 0 -125 -114 -125 -137 0 -12 -4 -25 -10 -28 -5 -3 -10
-15 -10 -25 0 -11 -12 -24 -30 -32 -27 -12 -30 -17 -30 -60 0 -27 -4 -48 -10
-48 -5 0 -10 -7 -10 -16 0 -20 -24 -44 -44 -44 -12 0 -16 -10 -16 -35 0 -53
-39 -115 -72 -115 -15 0 -18 -8 -18 -59 0 -33 -4 -63 -10 -66 -5 -3 -10 -17
-10 -31 0 -13 5 -24 10 -24 6 0 10 -46 10 -118 0 -112 1 -120 24 -141 14 -13
22 -30 19 -40 -2 -10 3 -23 11 -30 21 -18 22 -104 1 -121 -8 -7 -15 -20 -15
-29 0 -9 -9 -23 -20 -31 -17 -12 -20 -26 -20 -82 0 -37 -4 -68 -9 -68 -6 0
-11 -15 -13 -32 -2 -22 -10 -36 -26 -44 -25 -12 -52 -55 -52 -82 0 -19 -29
-52 -45 -52 -6 0 -17 -16 -25 -35 -7 -19 -26 -47 -42 -62 -15 -15 -28 -32 -28
-38 0 -14 -42 -54 -72 -69 -13 -6 -27 -21 -32 -32 -5 -11 -19 -25 -30 -30 -12
-5 -31 -30 -44 -56 -13 -27 -29 -48 -35 -48 -18 0 -57 -42 -57 -62 0 -11 -7
-18 -18 -18 -23 0 -42 -19 -42 -42 0 -10 -4 -18 -10 -18 -5 0 -10 -9 -10 -20
0 -15 -7 -20 -28 -20 -29 0 -54 -20 -66 -53 -3 -11 -15 -21 -27 -24 -11 -3
-25 -16 -30 -30 -5 -13 -20 -28 -34 -33 -14 -5 -25 -15 -25 -22 0 -15 -70 -88
-85 -88 -6 0 -37 -27 -70 -60 -33 -33 -64 -60 -70 -60 -6 0 -29 -18 -50 -40
-21 -22 -44 -40 -50 -40 -6 0 -22 -12 -36 -26 -13 -14 -34 -30 -46 -35 -13 -5
-23 -15 -23 -24 0 -8 -19 -23 -42 -34 -24 -11 -54 -31 -67 -45 -14 -14 -30
-26 -36 -26 -6 0 -24 -14 -40 -30 -16 -17 -34 -30 -40 -30 -6 0 -24 -13 -40
-30 -16 -16 -36 -30 -45 -30 -8 0 -22 -9 -30 -20 -8 -11 -21 -20 -30 -20 -8 0
-26 -14 -39 -30 -14 -19 -33 -30 -47 -30 -16 0 -36 -13 -55 -35 -17 -19 -38
-35 -46 -35 -8 0 -28 -13 -43 -30 -17 -18 -38 -30 -54 -30 -14 0 -26 -4 -26
-10 0 -5 -8 -10 -18 -10 -10 0 -24 -9 -32 -20 -8 -11 -24 -20 -35 -20 -31 0
-73 -23 -79 -42 -2 -10 -13 -18 -24 -18 -24 0 -76 -25 -92 -45 -7 -8 -18 -15
-24 -15 -7 0 -25 -13 -41 -30 -16 -16 -39 -30 -51 -30 -12 0 -27 -7 -34 -15
-7 -8 -18 -15 -25 -15 -6 0 -20 -9 -30 -20 -10 -11 -26 -20 -35 -20 -22 0 -74
-26 -90 -45 -8 -9 -30 -15 -57 -15 -37 0 -50 -5 -73 -30 -21 -23 -37 -30 -64
-30 -20 0 -36 -4 -36 -10 0 -5 -7 -10 -15 -10 -8 0 -30 -9 -50 -20 -20 -11
-42 -20 -50 -20 -8 0 -30 -9 -50 -20 -20 -11 -44 -20 -55 -20 -10 0 -22 -4
-25 -10 -3 -5 -16 -10 -29 -10 -13 0 -31 -9 -41 -20 -10 -11 -28 -20 -41 -20
-13 0 -26 -4 -29 -10 -3 -6 -17 -10 -29 -10 -13 0 -29 -7 -36 -15 -7 -8 -21
-15 -31 -15 -11 0 -19 -4 -19 -10 0 -5 -9 -10 -20 -10 -11 0 -20 -4 -20 -10 0
-5 -9 -10 -20 -10 -11 0 -20 -4 -20 -10 0 -5 -9 -10 -20 -10 -11 0 -20 -4 -20
-10 0 -5 -9 -10 -20 -10 -11 0 -20 -4 -20 -10 0 -5 -17 -10 -39 -10 -22 0 -44
-6 -51 -15 -15 -19 -68 -45 -90 -45 -9 0 -22 6 -29 13 -11 10 -14 10 -18 0 -3
-8 -24 -13 -54 -13 -27 0 -49 -4 -49 -10 0 -5 -9 -10 -20 -10 -11 0 -20 -4
-20 -10 0 -6 -36 -10 -88 -10 -85 0 -89 -1 -117 -30 -26 -27 -35 -30 -93 -30
-58 0 -65 -2 -89 -30 -22 -27 -31 -30 -83 -30 -39 0 -62 -5 -70 -15 -7 -8 -19
-15 -26 -15 -8 0 -14 -4 -14 -10 0 -5 -11 -10 -24 -10 -13 0 -50 -13 -81 -30
-31 -16 -72 -30 -90 -30 -18 0 -59 -14 -90 -30 -31 -17 -72 -30 -91 -30 -19 0
-34 -4 -34 -10 0 -5 -13 -10 -30 -10 -16 0 -30 -4 -30 -10 0 -5 -9 -10 -20
-10 -11 0 -20 -4 -20 -10 0 -5 -13 -10 -29 -10 -16 0 -31 -6 -34 -12 -3 -10
-8 -10 -17 -2 -9 9 -25 5 -67 -17 -30 -16 -63 -29 -73 -29 -11 0 -22 -4 -25
-10 -3 -5 -19 -10 -35 -10 -16 0 -45 -9 -65 -20 -21 -12 -54 -20 -80 -20 -25
0 -45 -4 -45 -10 0 -5 -14 -10 -30 -10 -18 0 -33 -6 -36 -15 -4 -9 -19 -15
-35 -15 -16 0 -29 -4 -29 -10 0 -5 -13 -10 -29 -10 -17 0 -33 -5 -36 -10 -3
-6 -21 -10 -39 -10 -20 0 -40 -8 -51 -20 -14 -15 -31 -20 -71 -20 -29 0 -56
-5 -59 -10 -3 -6 -24 -10 -46 -10 -21 0 -39 -4 -39 -10 0 -5 -9 -10 -20 -10
-11 0 -20 -4 -20 -10 0 -6 -27 -10 -60 -10 -33 0 -60 -4 -60 -10 0 -5 -22 -10
-48 -10 -36 0 -54 -5 -67 -20 -15 -16 -31 -20 -87 -20 -39 0 -68 -4 -68 -10 0
-5 -22 -10 -50 -10 -27 0 -50 -4 -50 -10 0 -5 -13 -10 -30 -10 -16 0 -30 -4
-30 -10 0 -6 -30 -10 -69 -10 -39 0 -73 -4 -76 -10 -3 -5 -37 -10 -76 -10 -39
0 -69 -4 -69 -10 0 -5 -13 -10 -30 -10 -16 0 -30 -4 -30 -10 0 -6 -36 -10 -89
-10 -50 0 -93 -4 -96 -10 -3 -5 -35 -10 -69 -10 -44 0 -67 -5 -76 -15 -7 -8
-23 -15 -36 -15 -12 0 -26 -4 -29 -10 -4 -6 -57 -10 -125 -10 -68 0 -121 -4
-125 -10 -3 -5 -33 -10 -65 -10 -41 0 -71 -6 -95 -20 -31 -17 -54 -20 -170
-20 -78 0 -136 -4 -140 -10 -4 -6 -53 -10 -116 -10 -66 0 -109 -4 -109 -10 0
-5 -22 -10 -49 -10 -28 0 -53 -4 -56 -10 -4 -6 -77 -10 -185 -10 -108 0 -181
-4 -185 -10 -3 -5 -21 -10 -40 -10 -19 0 -37 -4 -40 -10 -3 -5 -21 -10 -40
-10 -19 0 -37 -4 -40 -10 -4 -6 -157 -10 -426 -10 -273 0 -419 -3 -419 -10 0
-6 -48 -10 -125 -10 -77 0 -125 4 -125 10 0 6 -27 10 -60 10 -33 0 -60 -4 -60
-10 0 -5 -9 -10 -19 -10 -11 0 -23 5 -26 10 -8 14 -112 13 -121 -1 -4 -8 -9
-8 -17 0 -14 14 -74 14 -82 1 -4 -6 -95 -10 -241 -10 -149 0 -234 4 -234 10 0
6 -9 10 -20 10 -11 0 -20 -4 -20 -10 0 -13 -117 -13 -125 0 -8 13 -92 13 -100
0 -3 -5 -24 -10 -46 -10 -21 0 -39 5 -39 10 0 7 -155 10 -445 10 -426 0 -446
1 -480 20 -25 14 -54 20 -100 20 -37 0 -65 4 -65 10 0 6 -50 10 -129 10 -76 0
-132 4 -136 10 -3 6 -19 10 -36 10 -16 0 -29 5 -29 10 0 6 -36 10 -89 10 -50
0 -93 5 -96 10 -3 6 -50 10 -106 10 -59 0 -99 4 -99 10 0 6 -18 10 -40 10 -22
0 -40 5 -40 10 0 6 -46 10 -119 10 -69 0 -122 4 -126 10 -3 5 -42 10 -86 10
-46 0 -79 4 -79 10 0 6 -21 10 -47 10 -27 0 -53 6 -62 15 -11 9 -43 15 -89 17
-41 1 -76 6 -78 10 -3 4 -34 8 -69 8 -35 0 -67 5 -70 10 -3 6 -15 10 -26 10
-10 0 -19 5 -19 10 0 6 -22 10 -49 10 -30 0 -51 5 -54 13 -4 9 -8 8 -16 -3 -8
-12 -13 -12 -23 -2 -6 6 -22 12 -34 12 -13 0 -26 5 -29 10 -3 6 -17 10 -30 10
-13 0 -27 5 -30 10 -3 5 -26 10 -50 10 -24 0 -47 4 -50 10 -3 6 -37 10 -76 10
-39 0 -69 4 -69 10 0 6 -9 10 -20 10 -11 0 -20 5 -20 10 0 6 -22 10 -49 10
-28 0 -53 5 -56 10 -5 8 -11 8 -20 0 -9 -8 -15 -8 -20 0 -3 5 -21 10 -40 10
-19 0 -37 5 -40 10 -3 6 -19 10 -36 10 -16 0 -29 5 -29 10 0 6 -18 10 -40 10
-22 0 -40 5 -40 10 0 6 -18 10 -40 10 -22 0 -40 5 -40 10 0 6 -9 10 -19 10
-11 0 -23 5 -26 10 -3 6 -21 10 -40 10 -19 0 -37 5 -40 10 -3 6 -23 10 -44 10
-37 0 -95 22 -106 41 -4 5 -26 9 -50 9 -24 0 -47 5 -50 10 -3 6 -19 10 -36 10
-16 0 -29 5 -29 10 0 6 -9 10 -20 10 -11 0 -20 5 -20 10 0 6 -18 10 -40 10
-22 0 -40 5 -40 10 0 6 -9 10 -20 10 -11 0 -20 5 -20 10 0 6 -9 10 -20 10 -11
0 -20 5 -20 10 0 6 -15 10 -34 10 -19 0 -60 14 -91 30 -31 17 -70 30 -85 30
-16 0 -32 5 -35 10 -3 6 -15 10 -26 10 -10 0 -19 5 -19 10 0 6 -13 10 -30 10
-16 0 -30 5 -30 10 0 6 -9 10 -20 10 -11 0 -20 5 -20 10 0 6 -20 10 -45 10
-26 0 -59 8 -80 20 -20 11 -44 20 -55 20 -10 0 -22 5 -25 10 -3 6 -19 10 -34
10 -29 0 -86 24 -96 41 -4 5 -25 9 -49 9 -34 0 -48 6 -71 30 -22 23 -38 30
-67 30 -21 0 -38 5 -38 10 0 6 -13 10 -30 10 -16 0 -30 5 -30 10 0 6 -9 10
-20 10 -11 0 -20 5 -20 10 0 6 -26 10 -59 10 -33 0 -63 5 -66 10 -3 6 -21 10
-39 10 -20 0 -40 8 -51 20 -12 13 -31 20 -57 20 -21 0 -38 5 -38 10 0 6 -18
10 -40 10 -22 0 -40 5 -40 10 0 6 -18 10 -40 10 -22 0 -40 5 -40 10 0 6 -17
10 -38 10 -26 0 -45 7 -57 20 -14 15 -31 20 -70 20 -45 0 -55 4 -85 35 -30 31
-40 35 -86 35 -29 0 -56 5 -59 10 -3 6 -23 10 -43 10 -26 0 -42 6 -52 20 -10
14 -26 20 -52 20 -21 0 -38 5 -38 10 0 6 -8 10 -18 10 -10 0 -24 9 -32 20 -10
14 -26 20 -50 20 -27 0 -44 8 -65 30 -18 19 -39 30 -56 30 -15 0 -53 13 -84
30 -31 16 -72 30 -91 30 -19 0 -34 5 -34 10 0 6 -13 10 -28 10 -16 0 -34 8
-42 20 -9 13 -26 20 -46 20 -36 0 -83 21 -109 50 -10 11 -26 20 -35 20 -22 0
-74 26 -90 45 -7 8 -22 15 -34 15 -12 0 -35 13 -51 30 -16 17 -34 30 -40 30
-7 0 -20 9 -30 20 -10 11 -28 20 -41 20 -13 0 -26 5 -29 10 -3 6 -18 10 -33
10 -16 0 -34 8 -42 20 -8 11 -25 20 -38 20 -14 0 -36 13 -52 30 -15 17 -35 30
-44 30 -9 0 -16 5 -16 10 0 6 -9 10 -20 10 -13 0 -20 7 -20 20 0 16 -7 20 -30
20 -18 0 -33 6 -36 15 -4 8 -14 15 -23 15 -9 0 -23 9 -31 20 -8 11 -22 20 -32
20 -10 0 -18 5 -18 10 0 6 -12 10 -26 10 -29 0 -54 21 -54 44 0 11 -9 16 -30
16 -23 0 -30 5 -30 19 0 12 -13 25 -35 35 -19 9 -37 21 -40 26 -3 6 -25 19
-49 30 -23 10 -49 26 -56 35 -7 8 -18 15 -24 15 -7 0 -27 16 -45 34 -19 19
-46 36 -60 38 -15 2 -30 13 -38 28 -7 15 -24 27 -40 30 -18 3 -33 15 -41 33
-8 17 -21 27 -34 27 -25 0 -58 27 -58 47 0 7 -11 13 -26 13 -29 0 -54 21 -54
44 0 11 -9 16 -30 16 -21 0 -30 5 -30 16 0 23 -25 44 -54 44 -18 0 -26 5 -26
17 0 19 -28 53 -45 53 -6 0 -24 13 -40 30 -16 16 -35 30 -42 30 -19 0 -63 45
-63 65 0 10 -10 15 -30 15 -23 0 -30 4 -30 20 0 11 -4 20 -10 20 -5 0 -10 7
-10 16 0 18 -23 44 -40 44 -17 0 -40 26 -40 44 0 11 -9 16 -30 16 -23 0 -30 4
-30 20 0 11 -4 20 -9 20 -5 0 -11 10 -13 22 -2 13 -11 24 -22 26 -25 5 -46 26
-46 46 0 9 -4 16 -10 16 -5 0 -10 12 -10 26 0 17 -14 39 -40 64 -37 36 -40 42
-40 94 0 51 -2 56 -21 53 -34 -3 -57 46 -58 125 -1 44 3 68 12 72 9 5 9 7 0
12 -8 4 -13 27 -13 65 0 33 -4 59 -10 59 -5 0 -10 14 -10 30 0 17 -4 30 -10
30 -5 0 -10 7 -10 15 0 8 5 15 10 15 6 0 10 9 10 20 0 11 5 20 10 20 6 0 10
33 10 80 0 47 4 80 10 80 6 0 10 13 10 28 0 18 11 38 30 57 17 16 30 38 31 49
1 31 32 79 57 91 16 7 22 19 22 41 0 35 23 61 60 66 18 2 25 9 25 25 0 13 6
28 13 35 7 7 12 17 12 23 0 5 10 15 22 20 27 13 56 62 57 98 1 23 5 27 31 27
28 0 30 3 30 36 0 28 8 43 40 74 22 21 40 44 40 50 0 20 27 40 54 40 14 0 26
5 26 12 0 23 34 48 65 48 19 0 39 8 50 20 29 32 74 50 125 50 30 0 52 6 60 15
15 18 68 45 89 45 9 0 30 14 48 30 18 17 42 30 55 30 13 0 30 9 38 20 8 11 22
20 32 20 10 0 18 5 18 10 0 6 12 10 26 10 16 0 37 12 54 30 16 17 38 30 52 30
14 0 37 13 53 30 16 17 39 30 52 30 16 0 27 8 33 25 7 17 17 25 34 25 14 0 28
5 31 10 3 6 21 10 39 10 23 0 41 9 61 30 23 24 37 30 70 30 33 0 47 6 70 30
21 22 38 30 65 30 24 0 40 6 50 20 8 12 26 20 42 20 15 0 28 5 28 10 0 6 13
10 28 10 16 0 34 8 42 20 8 12 26 20 42 20 15 0 30 5 33 10 3 6 25 10 49 10
30 0 48 6 61 20 10 11 28 20 41 20 13 0 26 5 29 10 3 6 27 10 52 10 36 0 49 5
65 25 15 19 29 25 59 25 21 0 39 5 39 10 0 6 22 10 50 10 39 0 53 4 62 20 8
12 24 20 40 20 15 0 30 5 33 10 3 6 16 10 27 10 12 0 32 10 45 22 42 39 24
158 -24 158 -14 0 -27 10 -35 27 -8 18 -23 30 -41 33 -16 3 -33 15 -40 30 -7
13 -23 30 -35 36 -13 6 -36 23 -51 38 -15 14 -32 26 -37 26 -15 0 -45 35 -38
43 4 4 -2 9 -12 13 -10 4 -58 45 -105 91 -47 47 -97 90 -110 97 -13 6 -30 24
-37 39 -9 18 -21 27 -38 27 -13 0 -24 6 -24 13 0 7 -6 19 -12 26 -7 6 -13 17
-13 24 0 7 -15 13 -32 15 -25 2 -33 8 -33 23 0 10 -4 19 -9 19 -5 0 -11 10
-13 22 -2 14 -17 30 -40 42 -23 12 -38 27 -38 38 0 10 -6 18 -13 18 -20 0 -65
52 -69 80 -2 18 -10 26 -28 28 -25 3 -50 39 -50 71 0 18 -29 51 -45 51 -18 0
-43 32 -47 60 -1 13 -13 30 -26 36 -25 12 -52 55 -52 82 0 18 -28 52 -44 52
-17 0 -36 50 -36 97 0 40 -13 58 -23 31 -6 -19 -37 9 -37 33 0 11 -4 19 -10
19 -13 0 -13 97 0 105 8 5 7 11 -1 21 -16 20 -26 18 -32 -7 -3 -12 -10 -18
-16 -14 -6 3 -9 10 -6 15 3 5 1 11 -5 15 -5 3 -10 14 -10 24 0 10 -7 24 -15
31 -20 16 -19 39 2 62 15 16 15 20 0 36 -8 9 -16 22 -16 27 0 6 -8 11 -18 13
-54 9 -63 22 -63 94 0 39 4 68 10 68 6 0 10 20 10 45 0 25 -4 45 -10 45 -5 0
-10 14 -10 30 0 17 -4 30 -10 30 -5 0 -10 -13 -10 -30 0 -16 -3 -30 -6 -30
-14 0 -34 31 -34 54 0 14 -4 26 -10 26 -6 0 -10 36 -10 89 0 50 5 93 10 96 6
4 10 88 10 220 0 196 2 217 20 250 11 20 20 44 20 55 0 10 5 22 10 25 6 3 10
28 10 56 0 27 5 49 10 49 6 0 10 18 10 40 0 22 5 40 10 40 6 0 10 8 10 18 0
10 11 28 24 41 16 15 22 29 18 47 -3 15 2 32 13 44 10 11 15 26 12 33 -3 8 9
29 29 48 25 24 34 42 34 65 0 18 5 36 10 39 6 3 10 16 10 29 0 12 14 35 30 51
17 16 30 37 30 47 0 10 5 18 10 18 6 0 10 12 10 26 0 29 21 54 44 54 11 0 16
9 16 30 0 17 5 30 10 30 6 0 10 14 10 30 0 27 3 30 30 30 25 0 30 4 30 25 0
30 46 85 72 85 11 0 18 7 18 20 0 11 5 20 10 20 6 0 10 9 10 20 0 15 7 20 26
20 29 0 54 21 54 44 0 9 8 16 20 16 11 0 20 5 20 10 0 6 14 10 30 10 17 0 30
5 30 10 0 6 7 10 15 10 9 0 25 9 37 20 12 11 31 20 43 20 12 0 34 14 50 30 20
21 38 30 60 30 19 0 39 8 50 20 10 11 24 20 30 20 7 0 18 7 25 15 7 8 27 15
45 15 19 0 39 8 50 20 10 11 28 20 41 20 13 0 26 5 29 10 4 6 77 10 185 10
108 0 181 4 185 10 3 6 28 10 56 10 27 0 49 5 49 10 0 6 26 10 59 10 33 0 63
5 66 10 4 6 77 10 186 10 113 0 179 -4 179 -10 0 -6 32 -10 75 -10 56 0 83 -5
110 -20 32 -18 54 -20 198 -20 l163 0 29 -30 c25 -26 36 -30 81 -30 34 0 56
-5 64 -15 9 -11 32 -15 83 -15 75 0 107 15 107 52 0 10 4 18 9 18 5 0 12 10
14 23 l4 22 8 -22 c9 -28 25 -30 25 -3 0 11 5 20 10 20 6 0 10 30 10 70 0 40
-4 70 -10 70 -5 0 -10 9 -10 20 0 11 -4 20 -10 20 -5 0 -10 14 -10 30 0 23 -4
30 -20 30 -17 0 -20 7 -20 45 0 25 5 45 10 45 6 0 10 47 10 121 0 92 -3 120
-12 116 -7 -2 -12 -12 -10 -22 4 -20 -26 -57 -39 -49 -5 3 -7 9 -4 14 3 4 -2
13 -10 20 -24 20 -21 132 4 154 19 17 39 7 26 -14 -9 -15 15 -12 31 4 10 10
14 39 14 98 0 81 1 86 30 113 20 19 30 39 31 59 1 39 29 88 57 101 15 6 22 19
22 36 0 21 8 31 36 44 20 9 39 26 41 36 3 11 26 29 50 40 25 11 42 23 39 26
-8 8 24 43 39 43 13 0 65 52 65 66 0 10 10 16 78 49 22 10 43 27 45 37 3 10
14 18 25 18 24 0 76 25 92 45 7 8 22 15 35 15 12 0 30 9 40 20 10 11 26 20 37
20 10 0 18 5 18 10 0 6 21 10 46 10 38 0 51 5 74 30 25 26 35 30 83 30 31 0
59 5 62 10 3 6 21 10 39 10 20 0 40 8 51 20 15 16 31 20 87 20 37 0 68 4 68 9
0 6 24 11 53 13 45 3 52 6 55 26 3 20 8 22 71 22 48 0 72 4 81 15 19 23 70 45
106 45 17 0 58 14 89 30 43 23 70 30 111 30 30 0 54 5 54 10 0 6 13 10 28 10
16 0 34 8 42 20 11 15 26 20 62 20 26 0 50 5 53 10 3 6 30 10 59 10 40 0 57 5
71 20 14 16 31 20 77 20 32 0 58 4 58 10 0 6 20 10 45 10 26 0 59 8 80 20 28
16 54 20 125 20 49 0 92 5 95 10 3 6 14 10 24 10 21 0 78 27 86 41 4 5 69 9
145 9 82 0 141 4 145 10 3 6 26 10 50 10 24 0 47 5 50 10 3 6 24 10 46 10 22
0 39 5 39 11 0 8 6 7 17 -2 13 -11 17 -11 20 -1 4 9 72 12 298 12 185 0 296 4
300 10 3 6 17 10 30 10 13 0 27 5 30 10 3 6 19 10 36 10 16 0 29 5 29 10 0 6
91 10 254 10 159 0 257 4 261 10 3 6 17 10 30 10 13 0 27 5 30 10 3 6 30 10
60 10 30 0 57 5 60 10 4 7 358 10 1030 10 672 0 1026 -3 1030 -10z"/>
<path d="M22505 13440 c-3 -5 -37 -10 -76 -10 -39 0 -69 -4 -69 -10 0 -5 -9
-10 -20 -10 -11 0 -20 5 -20 10 0 6 -13 10 -30 10 -16 0 -30 -4 -30 -10 0 -5
-8 -10 -18 -10 -10 0 -24 -9 -32 -20 -10 -14 -26 -20 -56 -20 -47 0 -104 -25
-104 -46 0 -9 -11 -14 -34 -14 -18 0 -39 -7 -46 -15 -7 -8 -23 -15 -35 -15
-14 0 -25 -7 -28 -20 -3 -13 -14 -20 -29 -20 -14 0 -37 -13 -53 -30 -16 -16
-34 -30 -40 -30 -6 0 -22 -12 -36 -26 -13 -14 -38 -32 -56 -41 -20 -9 -33 -23
-33 -34 0 -14 -7 -19 -26 -19 -32 0 -54 -21 -54 -53 0 -24 -31 -59 -62 -70
-14 -5 -18 -17 -18 -50 0 -48 -19 -73 -59 -79 -24 -3 -25 -6 -22 -62 2 -49 -1
-62 -21 -83 -13 -14 -33 -29 -45 -34 -20 -7 -23 -16 -23 -59 0 -27 -4 -50 -10
-50 -5 0 -10 -12 -10 -26 0 -29 -21 -54 -44 -54 -14 0 -16 -36 -16 -323 l0
-324 25 -23 c34 -32 55 -76 55 -116 0 -26 4 -33 22 -36 12 -2 27 -13 33 -24 6
-12 17 -29 24 -37 7 -9 11 -26 10 -39 -4 -29 21 -68 42 -68 25 0 41 -24 26
-39 -9 -11 -9 -14 1 -18 6 -3 12 -16 12 -30 0 -16 14 -38 40 -63 26 -25 40
-47 40 -64 0 -17 5 -26 16 -26 8 0 33 -18 54 -40 21 -22 46 -40 54 -40 9 0 16
-8 16 -19 0 -10 25 -42 55 -70 30 -29 55 -59 55 -67 0 -8 10 -14 26 -14 29 0
54 -21 54 -44 0 -11 9 -16 30 -16 20 0 30 -5 30 -15 0 -19 64 -85 82 -85 7 0
26 -16 43 -35 16 -19 38 -35 47 -35 10 0 18 -4 18 -10 0 -5 7 -10 16 -10 9 0
29 -13 44 -30 17 -18 38 -30 54 -30 17 0 26 -5 26 -16 0 -22 25 -44 50 -44 12
0 35 -13 50 -30 15 -16 34 -30 42 -30 8 0 27 -13 43 -30 16 -16 34 -30 40 -30
6 0 24 -13 40 -30 16 -16 34 -30 40 -30 6 0 26 -16 45 -35 19 -20 44 -35 57
-35 13 0 23 -6 23 -14 0 -16 53 -46 80 -46 10 0 23 -7 30 -15 17 -20 69 -45
94 -45 12 0 28 -9 36 -20 10 -14 26 -20 52 -20 21 0 38 -4 38 -10 0 -5 18 -10
40 -10 22 0 40 -4 40 -10 0 -5 9 -10 19 -10 11 0 23 -4 26 -10 3 -5 42 -10 86
-10 46 0 79 4 79 10 0 6 9 10 20 10 11 0 20 5 20 10 0 6 26 10 59 10 33 0 63
5 66 10 3 6 19 10 35 10 16 0 45 9 65 20 21 12 54 20 80 20 25 0 45 5 45 10 0
6 18 10 40 10 22 0 40 5 40 10 0 6 7 10 15 10 20 0 65 44 65 64 0 9 12 16 33
18 l32 3 3 84 c2 67 0 87 -14 102 -9 11 -13 19 -9 19 4 0 2 8 -6 18 -27 33
-39 62 -39 91 0 17 -4 33 -10 36 -6 4 -10 118 -10 311 0 196 -4 304 -10 304
-5 0 -10 -4 -10 -10 0 -5 -4 -10 -10 -10 -5 0 -10 9 -10 20 0 11 -4 20 -10 20
-6 0 -10 30 -10 69 0 39 -4 73 -10 76 -6 4 -10 60 -10 136 0 79 4 129 10 129
6 0 10 30 10 69 0 39 -4 73 -10 76 -5 3 -10 19 -10 36 0 19 -5 29 -15 29 -9 0
-27 11 -40 25 -19 18 -25 35 -25 70 0 43 -1 45 -30 45 -29 0 -30 1 -30 48 0
35 -5 54 -19 66 -17 16 -19 16 -25 0 -5 -14 -11 -12 -37 15 -29 31 -30 35 -28
114 1 54 -2 82 -9 85 -7 2 -12 -1 -12 -7 0 -6 -9 -11 -20 -11 -15 0 -20 7 -20
29 0 17 -4 33 -10 36 -5 3 -10 26 -10 50 0 24 5 47 10 50 15 9 12 54 -4 71 -8
8 -24 14 -36 14 -36 0 -50 24 -50 84 0 44 -3 56 -15 56 -29 0 -65 47 -65 85 0
28 -4 35 -19 35 -10 0 -21 7 -25 15 -3 8 -15 15 -27 15 -20 0 -21 4 -16 46 4
40 2 46 -17 54 -41 16 -64 45 -68 85 -3 34 -8 42 -40 59 -23 12 -38 27 -38 38
0 13 -7 18 -25 18 -15 0 -28 7 -32 18 -11 30 -35 52 -60 52 -13 0 -23 6 -23
13 0 24 -36 47 -73 47 -30 0 -37 4 -37 20 0 17 -7 20 -40 20 -22 0 -40 5 -40
10 0 6 -30 10 -69 10 -39 0 -73 5 -76 10 -3 6 -21 10 -40 10 -19 0 -37 -4 -40
-10z"/>
</g>
</svg>
